<svg width="16" height="16" fill="none" xmlns="http://www.w3.org/2000/svg"><path fill-rule="evenodd" clip-rule="evenodd" d="M4.055 15.781a.393.393 0 00.419.202c.097-.016.164-.057.27-.166l3.66-3.857c2.649-2.795 3.53-3.743 3.564-3.836.04-.11.04-.139 0-.247-.035-.093-.942-1.07-3.609-3.882A3003.805 3003.805 0 004.7.138c-.303-.303-.8-.02-.667.38.029.086.908 1.034 3.519 3.79 1.915 2.02 3.477 3.685 3.473 3.7a636.93 636.93 0 01-3.462 3.667c-1.899 2.004-3.477 3.688-3.507 3.741-.07.124-.07.227 0 .365z" fill="#fff"/></svg>