<svg width="96" height="16" fill="none" xmlns="http://www.w3.org/2000/svg"><path d="M7.677.574a.355.355 0 01.646 0l2.1 4.555c.053.113.159.19.282.205l4.981.59a.355.355 0 01.2.614l-3.683 3.406a.355.355 0 00-.108.33l.978 4.92a.355.355 0 01-.522.38l-4.377-2.45a.355.355 0 00-.348 0l-4.377 2.45a.355.355 0 01-.522-.38l.978-4.92a.355.355 0 00-.108-.33L.115 6.538a.355.355 0 01.199-.614l4.981-.59a.355.355 0 00.281-.205L7.677.574zm20 0a.356.356 0 01.646 0l2.1 4.555c.053.113.159.19.282.205l4.981.59a.355.355 0 01.2.614l-3.683 3.406a.355.355 0 00-.108.33l.978 4.92a.355.355 0 01-.522.38l-4.377-2.45a.355.355 0 00-.348 0l-4.377 2.45a.355.355 0 01-.522-.38l.978-4.92a.355.355 0 00-.108-.33l-3.683-3.406a.355.355 0 01.2-.614l4.981-.59a.355.355 0 00.281-.205L27.677.574zm20 0a.356.356 0 01.646 0l2.1 4.555c.052.113.159.19.282.205l4.981.59a.355.355 0 01.2.614l-3.683 3.406a.355.355 0 00-.108.33l.978 4.92a.355.355 0 01-.522.38l-4.377-2.45a.355.355 0 00-.348 0l-4.377 2.45a.355.355 0 01-.522-.38l.978-4.92a.355.355 0 00-.108-.33l-3.682-3.406a.355.355 0 01.199-.614l4.981-.59a.355.355 0 00.281-.205L47.677.574zm20 0a.356.356 0 01.646 0l2.1 4.555c.052.113.159.19.282.205l4.981.59a.355.355 0 01.2.614l-3.683 3.406a.355.355 0 00-.108.33l.978 4.92a.355.355 0 01-.522.38l-4.377-2.45a.355.355 0 00-.348 0l-4.377 2.45a.355.355 0 01-.522-.38l.978-4.92a.355.355 0 00-.108-.33l-3.682-3.406a.355.355 0 01.199-.614l4.981-.59a.355.355 0 00.281-.205L67.677.574zm20 0a.356.356 0 01.646 0l2.1 4.555c.052.113.159.19.282.205l4.981.59a.355.355 0 01.2.614l-3.683 3.406a.355.355 0 00-.108.33l.978 4.92a.355.355 0 01-.522.38l-4.377-2.45a.355.355 0 00-.348 0l-4.377 2.45a.355.355 0 01-.522-.38l.978-4.92a.355.355 0 00-.108-.33l-3.682-3.406a.355.355 0 01.199-.614l4.981-.59a.355.355 0 00.281-.205L87.677.574z" fill="#FF9A2E"/></svg>