<svg width="85" height="25" fill="none" xmlns="http://www.w3.org/2000/svg"><path d="M16.136 15.872V24H8.584v-8.224L.136 1.6h7.968l4.576 7.744L17.288 1.6h7.296l-8.448 14.272zM32.66 24.32c-1.94 0-3.69-.384-5.247-1.152-1.537-.79-2.742-1.867-3.616-3.232-.875-1.387-1.313-2.955-1.313-4.704 0-1.75.438-3.307 1.313-4.672.874-1.387 2.08-2.464 3.616-3.232 1.557-.768 3.306-1.152 5.247-1.152 1.963 0 3.713.384 5.248 1.152 1.558.768 2.763 1.845 3.617 3.232.874 1.365 1.312 2.923 1.312 4.672 0 1.75-.438 3.317-1.313 4.704-.853 1.365-2.058 2.443-3.616 3.232-1.535.768-3.285 1.152-5.248 1.152zm0-5.632c.833 0 1.515-.299 2.049-.896.533-.619.8-1.472.8-2.56s-.267-1.93-.8-2.528c-.534-.597-1.217-.896-2.049-.896-.831 0-1.514.299-2.047.896-.534.597-.8 1.44-.8 2.528s.266 1.941.8 2.56c.533.597 1.215.896 2.047.896zM45.1.256h7.232V24H45.1V.256zM64.785 24.32c-1.94 0-3.69-.384-5.247-1.152-1.536-.79-2.742-1.867-3.616-3.232-.875-1.387-1.313-2.955-1.313-4.704 0-1.75.438-3.307 1.313-4.672.874-1.387 2.08-2.464 3.616-3.232 1.557-.768 3.306-1.152 5.248-1.152 1.962 0 3.712.384 5.248 1.152 1.557.768 2.762 1.845 3.615 3.232.875 1.365 1.313 2.923 1.313 4.672 0 1.75-.438 3.317-1.313 4.704-.853 1.365-2.058 2.443-3.615 3.232-1.537.768-3.286 1.152-5.249 1.152zm0-5.632c.833 0 1.515-.299 2.049-.896.533-.619.8-1.472.8-2.56s-.267-1.93-.8-2.528c-.534-.597-1.216-.896-2.049-.896-.831 0-1.514.299-2.047.896-.534.597-.8 1.44-.8 2.528s.266 1.941.8 2.56c.533.597 1.215.896 2.047.896zM80.49 24.32c-1.216 0-2.23-.384-3.04-1.152-.79-.79-1.184-1.792-1.184-3.008s.395-2.197 1.184-2.944c.81-.768 1.824-1.152 3.04-1.152s2.219.384 3.008 1.152c.81.747 1.216 1.728 1.216 2.944s-.405 2.219-1.216 3.008c-.79.768-1.792 1.152-3.008 1.152z" fill="#343A40"/></svg>